<svg version="1.1" id="Layer_1" xmlns="http://www.w3.org/2000/svg" xmlns:xlink="http://www.w3.org/1999/xlink" x="0px" y="0px"
	 width="100%" viewBox="0 0 512 512" enable-background="new 0 0 512 512" xml:space="preserve">
<path fill="#000000" opacity="1.000000" stroke="none" 
	d="
M291.000000,513.000000 
	C194.023544,513.000000 97.547081,513.000000 1.035313,513.000000 
	C1.035313,342.398529 1.035313,171.797028 1.035313,1.097768 
	C171.559799,1.097768 342.119690,1.097768 512.839783,1.097768 
	C512.839783,171.666550 512.839783,342.333252 512.839783,513.000000 
	C439.130341,513.000000 365.315155,513.000000 291.000000,513.000000 
M70.998352,247.500000 
	C70.998352,272.143372 70.998352,296.786774 70.998352,321.349304 
	C54.527382,325.354553 43.540325,338.287262 41.092495,353.959412 
	C38.756126,368.917969 46.537189,385.600983 59.600891,392.752563 
	C77.485672,402.543457 94.008339,399.059601 108.797737,386.029694 
	C145.847687,407.420959 182.658142,428.673920 219.562027,449.980865 
	C215.371384,467.198792 219.440521,482.098267 233.649734,492.658264 
	C247.044815,502.613220 262.135437,503.520966 276.676147,494.944031 
	C294.025177,484.710571 298.554596,468.713501 294.548462,449.908722 
	C331.689545,428.478485 368.487854,407.246063 405.245361,386.037170 
	C420.403900,400.263245 439.684875,400.980072 453.504120,393.210022 
	C466.469849,385.919800 474.763550,370.121033 472.974457,354.950195 
	C471.145233,339.439026 459.090240,324.980133 443.176544,321.355591 
	C443.176544,278.431335 443.176544,235.477325 443.176544,192.565384 
	C459.657166,188.650925 470.823883,175.836197 472.777130,160.186035 
	C474.841125,143.648575 468.462524,129.817627 454.033905,121.169914 
	C441.091400,113.412880 423.363922,112.121300 405.049896,127.906761 
	C368.241547,106.657104 331.419647,85.399635 294.640869,64.167061 
	C299.302216,40.757023 290.052246,28.171509 280.110626,21.176922 
	C266.447906,11.564263 251.421341,10.446450 237.026108,19.165504 
	C220.073593,29.433493 215.306213,45.345032 219.461639,64.092987 
	C182.323303,85.531891 145.513107,106.781357 108.770966,127.991547 
	C93.890228,114.825874 76.739746,112.230179 60.843994,120.602509 
	C47.342995,127.713501 38.994606,143.561554 41.110008,159.644028 
	C43.155952,175.198441 53.978424,188.486588 70.678986,192.563873 
	C70.766022,192.880142 70.928711,193.196259 70.929283,193.512665 
	C70.960876,211.175095 70.978935,228.837555 70.998352,247.500000 
z"/>
<path fill="#3282B8" opacity="1.000000" stroke="none" 
	d="
M70.998352,247.000000 
	C70.978935,228.837555 70.960876,211.175095 70.929283,193.512665 
	C70.928711,193.196259 70.766022,192.880142 70.674088,192.565216 
	C53.978424,188.486588 43.155952,175.198441 41.110008,159.644028 
	C38.994606,143.561554 47.342995,127.713501 60.843994,120.602509 
	C76.739746,112.230179 93.890228,114.825874 108.770966,127.991547 
	C145.513107,106.781357 182.323303,85.531891 219.461639,64.092987 
	C215.306213,45.345032 220.073593,29.433493 237.026108,19.165504 
	C251.421341,10.446450 266.447906,11.564263 280.110626,21.176922 
	C290.052246,28.171509 299.302216,40.757023 294.640869,64.167061 
	C331.419647,85.399635 368.241547,106.657104 405.049896,127.906761 
	C423.363922,112.121300 441.091400,113.412880 454.033905,121.169914 
	C468.462524,129.817627 474.841125,143.648575 472.777130,160.186035 
	C470.823883,175.836197 459.657166,188.650925 443.176544,192.565384 
	C443.176544,235.477325 443.176544,278.431335 443.176544,321.355591 
	C459.090240,324.980133 471.145233,339.439026 472.974457,354.950195 
	C474.763550,370.121033 466.469849,385.919800 453.504120,393.210022 
	C439.684875,400.980072 420.403900,400.263245 405.245361,386.037170 
	C368.487854,407.246063 331.689545,428.478485 294.548462,449.908722 
	C298.554596,468.713501 294.025177,484.710571 276.676147,494.944031 
	C262.135437,503.520966 247.044815,502.613220 233.649734,492.658264 
	C219.440521,482.098267 215.371384,467.198792 219.562027,449.980865 
	C182.658142,428.673920 145.847687,407.420959 108.797737,386.029694 
	C94.008339,399.059601 77.485672,402.543457 59.600891,392.752563 
	C46.537189,385.600983 38.756126,368.917969 41.092495,353.959412 
	C43.540325,338.287262 54.527382,325.354553 70.998352,321.349304 
	C70.998352,296.786774 70.998352,272.143372 70.998352,247.000000 
M183.402786,228.217743 
	C181.927979,232.110474 178.517593,232.640030 175.035675,232.987122 
	C173.070679,233.182999 171.052139,233.051315 169.129608,233.431122 
	C151.804260,236.853836 137.136795,252.757996 138.998993,273.797791 
	C139.165100,289.284302 152.509476,305.174835 168.580200,306.732269 
	C183.441681,308.172485 198.499344,307.579712 213.470001,307.909424 
	C216.526215,307.976715 216.947647,306.087158 216.939514,303.652679 
	C216.910599,294.988464 216.915588,286.323975 216.954468,277.659790 
	C216.983093,271.282898 219.489212,268.067841 224.432907,267.928802 
	C229.726913,267.779968 232.757462,271.034149 232.898560,277.409973 
	C233.053360,284.405060 232.938126,291.405640 233.004349,298.403229 
	C233.104813,309.022064 231.655701,307.586182 242.683746,308.035187 
	C247.828247,308.244659 249.205338,306.537659 249.111832,301.521881 
	C248.813736,285.531738 248.973282,269.532440 249.020767,253.536850 
	C249.037491,247.902237 251.483856,244.652390 255.883698,244.067429 
	C261.195343,243.361237 264.941315,247.043808 264.971344,253.306213 
	C265.043243,268.301880 264.947693,283.298279 265.015472,298.293976 
	C265.063965,309.021484 263.651855,307.609589 274.576477,308.026855 
	C279.552399,308.216888 281.170258,306.804169 281.121887,301.632385 
	C280.882050,275.975098 281.021942,250.314041 281.073364,224.654404 
	C281.085449,218.632385 284.353119,214.386810 288.879272,214.236069 
	C293.916718,214.068298 297.031677,217.938614 297.041626,224.548569 
	C297.071228,244.209915 297.059174,263.871338 297.063873,283.532745 
	C297.065460,290.197632 297.085419,296.862549 297.061890,303.527344 
	C297.053619,305.879272 297.276489,307.963837 300.400970,307.896393 
	C315.537506,307.569427 330.772949,308.209595 345.784088,306.666168 
	C362.057861,304.992859 374.995972,288.922668 374.997437,272.023315 
	C376.760681,251.010468 358.306854,232.216156 337.861725,232.933868 
	C332.811890,233.111145 329.023346,228.932114 329.027893,223.686920 
	C329.042236,207.128784 311.671753,194.609116 297.333771,198.741699 
	C292.843933,200.035782 288.167297,199.212753 285.455475,194.802567 
	C279.363281,184.894913 270.781799,178.102036 260.194763,173.643951 
	C244.793762,167.158783 229.305832,167.581161 214.731949,175.263504 
	C193.773376,186.311386 184.453659,204.788544 183.957123,227.968964 
	C183.957123,227.968964 184.080811,227.946304 183.402786,228.217743 
M249.000000,388.500000 
	C249.000000,367.085938 249.000000,345.671906 249.000000,324.000000 
	C230.432571,324.000000 212.617950,324.133575 194.806580,323.950104 
	C184.051010,323.839325 173.301575,323.197968 162.546402,322.903107 
	C161.215164,322.866608 159.702316,323.208679 158.549622,323.862183 
	C145.595642,331.205658 132.668915,338.598877 119.827255,346.136200 
	C118.680557,346.809265 117.474449,348.596924 117.497162,349.845093 
	C117.624855,356.860077 118.120773,363.868378 118.536583,371.740753 
	C154.386887,392.436798 191.339081,413.768951 226.978989,434.343536 
	C234.665100,430.049133 241.408905,426.281189 249.000000,422.039856 
	C249.000000,412.124634 249.000000,400.812317 249.000000,388.500000 
M353.645508,322.932220 
	C349.138733,323.288239 344.633270,323.931702 340.125000,323.951996 
	C316.977966,324.056183 293.830231,324.000092 270.682739,324.000000 
	C268.914459,323.999969 267.146149,324.000000 265.193512,324.000000 
	C265.193512,357.557373 265.193512,390.479980 265.193512,422.110107 
	C272.701294,426.384064 279.556061,430.286255 286.856934,434.442413 
	C322.968414,413.584991 359.897369,392.255371 396.038300,371.380920 
	C396.038300,364.200012 395.510834,357.701874 396.260071,351.354401 
	C396.636566,348.164825 395.829773,347.099548 393.444641,345.735626 
	C380.378693,338.264099 367.394287,330.649963 353.645508,322.932220 
M264.999969,147.434570 
	C265.001770,149.766891 264.780121,152.129929 265.095001,154.419189 
	C265.264923,155.654907 266.084229,157.435104 267.066925,157.827835 
	C277.666290,162.064072 286.606354,168.531845 293.783112,177.359085 
	C296.243744,180.385605 299.155121,181.131012 302.892517,181.070328 
	C316.165375,180.854782 327.106842,186.061707 335.630707,196.180298 
	C337.970001,198.957260 340.024994,199.311905 343.225281,197.432251 
	C360.144470,187.494980 377.201447,177.792435 394.133575,167.876831 
	C395.293457,167.197601 396.550079,165.430817 396.527557,164.192291 
	C396.399780,157.172134 395.895782,150.158829 395.475464,142.314346 
	C359.626831,121.610458 322.677551,100.270912 286.877441,79.595047 
	C279.344604,83.845970 272.604614,87.649490 265.000000,91.940933 
	C265.000000,109.175926 265.000000,127.815063 264.999969,147.434570 
M180.486374,182.978882 
	C197.176315,159.349030 220.634949,150.783081 248.818665,152.453873 
	C248.818665,131.736069 248.818665,111.120270 248.818665,91.916023 
	C241.210419,87.591682 234.347382,83.690895 227.134598,79.591316 
	C190.928131,100.494934 153.970169,121.832420 118.026306,142.584427 
	C118.026306,151.111954 118.026306,158.652679 118.026306,166.834045 
	C135.292267,176.793381 153.487457,187.288727 171.692886,197.789978 
	C174.577454,192.826599 177.282822,188.171570 180.486374,182.978882 
M394.335327,187.932404 
	C378.311493,197.068909 362.287689,206.205414 345.220093,215.937057 
	C368.720062,220.897949 384.462158,233.636444 390.307922,256.002014 
	C396.190948,278.510162 389.545746,297.861053 371.330414,313.044373 
	C383.284058,319.951691 394.429413,326.391968 404.488800,332.204712 
	C410.782990,328.534760 416.023041,324.693665 421.868958,322.390228 
	C424.962738,321.171234 426.054260,320.311676 426.048370,317.131470 
	C425.974030,276.966278 425.985687,236.800858 426.030975,196.635559 
	C426.033905,194.036697 425.364014,192.837738 422.650085,191.617416 
	C417.203949,189.168610 412.264679,185.606491 407.041107,182.635880 
	C406.123932,182.114288 404.574585,181.730240 403.773743,182.151215 
	C400.734192,183.749115 397.882111,185.703674 394.335327,187.932404 
M139.527451,310.020508 
	C124.919395,297.356384 119.833931,280.793854 122.208893,262.384918 
	C125.205261,239.159225 141.715668,222.701126 163.817734,217.017944 
	C165.056778,216.699341 166.318481,216.468826 168.472916,216.001297 
	C148.531845,204.358887 129.622147,193.274429 110.617416,182.355331 
	C109.680977,181.817291 107.727318,182.379669 106.568611,183.015335 
	C101.731674,185.668900 97.224716,189.035034 92.186043,191.170959 
	C88.797806,192.607239 87.899796,194.273636 87.930740,197.688217 
	C88.083252,214.519196 87.999992,231.352310 88.000015,248.184662 
	C88.000046,271.016663 88.068108,293.849121 87.925301,316.680237 
	C87.904419,320.017334 88.869194,321.415894 92.080322,322.750153 
	C97.887100,325.162964 103.278976,328.574371 109.712914,332.036285 
	C114.082268,329.545654 119.755394,326.355927 125.384659,323.090576 
	C130.982925,319.843201 136.537140,316.519867 142.353516,313.086487 
	C141.345062,311.980652 140.684998,311.256836 139.527451,310.020508 
M427.483215,338.929840 
	C415.857300,341.113129 407.091309,358.437164 416.038239,371.213989 
	C421.788269,379.425476 431.440918,383.039734 440.588470,379.971191 
	C450.337708,376.700745 456.491150,367.900635 455.997589,357.934357 
	C455.321075,344.274231 442.743530,335.477997 427.483215,338.929840 
M73.969566,338.065033 
	C67.225250,340.610840 61.670101,344.860657 59.292896,351.674622 
	C53.852917,367.267639 65.872437,382.198181 82.474251,380.995117 
	C92.462402,380.271301 103.502022,367.719055 101.902618,358.421204 
	C99.555077,344.774353 91.228012,335.858856 73.969566,338.065033 
M92.394058,136.927826 
	C80.931641,129.189987 70.294968,133.584564 64.103096,139.605927 
	C57.578129,145.951202 56.085686,157.171555 60.069920,164.146561 
	C64.668732,172.197495 72.804512,178.380753 84.557098,175.961334 
	C94.525658,173.909210 104.115288,163.515137 100.786728,150.640686 
	C99.555252,145.877502 95.633606,141.809845 92.394058,136.927826 
M436.028564,176.469604 
	C452.106201,174.681580 458.703003,158.419373 455.031555,148.352188 
	C451.851013,139.630890 445.762329,134.418289 436.798431,133.107635 
	C427.976440,131.817734 420.932587,135.603271 416.111023,142.936218 
	C410.832581,150.964020 411.178253,158.958954 416.459045,167.189514 
	C421.018036,174.295120 428.024292,175.619934 436.028564,176.469604 
M246.852921,480.960419 
	C265.488281,488.525635 279.404968,475.510895 278.782990,460.548462 
	C278.331512,449.686859 271.960388,442.917419 261.240906,440.297699 
	C252.577850,438.180542 242.988510,442.358185 237.698441,451.634216 
	C232.568542,460.629425 235.285080,474.075165 246.852921,480.960419 
M276.610718,43.142506 
	C272.223206,34.438770 265.227173,30.531553 255.435013,30.938341 
	C247.036804,31.287224 239.368469,36.769653 236.267563,45.400448 
	C233.680237,52.601768 236.049271,63.688046 241.702133,68.075218 
	C250.597046,74.978554 260.046112,77.052269 270.467804,69.162186 
	C276.651184,64.480865 281.926331,55.233730 276.610718,43.142506 
z"/>
<path fill="#5FB8E0" opacity="1.000000" stroke="none" 
	d="
M374.987640,272.924011 
	C374.995972,288.922668 362.057861,304.992859 345.784088,306.666168 
	C330.772949,308.209595 315.537506,307.569427 300.400970,307.896393 
	C297.276489,307.963837 297.053619,305.879272 297.061890,303.527344 
	C297.085419,296.862549 297.065460,290.197632 297.063873,283.532745 
	C297.059174,263.871338 297.071228,244.209915 297.041626,224.548569 
	C297.031677,217.938614 293.916718,214.068298 288.879272,214.236069 
	C284.353119,214.386810 281.085449,218.632385 281.073364,224.654404 
	C281.021942,250.314041 280.882050,275.975098 281.121887,301.632385 
	C281.170258,306.804169 279.552399,308.216888 274.576477,308.026855 
	C263.651855,307.609589 265.063965,309.021484 265.015472,298.293976 
	C264.947693,283.298279 265.043243,268.301880 264.971344,253.306213 
	C264.941315,247.043808 261.195343,243.361237 255.883698,244.067429 
	C251.483856,244.652390 249.037491,247.902237 249.020767,253.536850 
	C248.973282,269.532440 248.813736,285.531738 249.111832,301.521881 
	C249.205338,306.537659 247.828247,308.244659 242.683746,308.035187 
	C231.655701,307.586182 233.104813,309.022064 233.004349,298.403229 
	C232.938126,291.405640 233.053360,284.405060 232.898560,277.409973 
	C232.757462,271.034149 229.726913,267.779968 224.432907,267.928802 
	C219.489212,268.067841 216.983093,271.282898 216.954468,277.659790 
	C216.915588,286.323975 216.910599,294.988464 216.939514,303.652679 
	C216.947647,306.087158 216.526215,307.976715 213.470001,307.909424 
	C198.499344,307.579712 183.441681,308.172485 168.580200,306.732269 
	C152.509476,305.174835 139.165100,289.284302 139.355316,273.260986 
	C140.754700,270.374359 141.490829,267.820953 142.891663,265.708344 
	C150.748260,253.859604 161.562332,247.337677 176.075668,246.739044 
	C178.453934,246.640930 181.901855,243.511948 182.719849,241.068756 
	C184.082474,236.998947 183.718033,232.350876 184.080811,227.946304 
	C184.080811,227.946304 183.957123,227.968964 184.326202,227.865295 
	C186.551224,217.556122 191.284393,208.711273 198.319992,201.291214 
	C209.807571,189.175888 224.018997,183.456909 240.854675,183.942917 
	C259.753754,184.488480 274.577667,192.274445 285.335419,207.783295 
	C288.927216,212.961380 291.907532,214.497635 298.010559,212.892960 
	C312.844574,208.992630 330.063477,221.755280 330.051483,238.159225 
	C330.047028,244.245529 332.910767,246.635239 338.718933,247.051407 
	C348.517242,247.753479 357.863037,250.041916 364.450439,258.067444 
	C368.292877,262.748718 371.496552,267.954315 374.987640,272.924011 
z"/>
<path fill="#000000" opacity="1.000000" stroke="none" 
	d="
M249.000000,389.000000 
	C249.000000,400.812317 249.000000,412.124634 249.000000,422.039856 
	C241.408905,426.281189 234.665100,430.049133 226.978989,434.343536 
	C191.339081,413.768951 154.386887,392.436798 118.536583,371.740753 
	C118.120773,363.868378 117.624855,356.860077 117.497162,349.845093 
	C117.474449,348.596924 118.680557,346.809265 119.827255,346.136200 
	C132.668915,338.598877 145.595642,331.205658 158.549622,323.862183 
	C159.702316,323.208679 161.215164,322.866608 162.546402,322.903107 
	C173.301575,323.197968 184.051010,323.839325 194.806580,323.950104 
	C212.617950,324.133575 230.432571,324.000000 249.000000,324.000000 
	C249.000000,345.671906 249.000000,367.085938 249.000000,389.000000 
z"/>
<path fill="#000000" opacity="1.000000" stroke="none" 
	d="
M354.013672,323.008514 
	C367.394287,330.649963 380.378693,338.264099 393.444641,345.735626 
	C395.829773,347.099548 396.636566,348.164825 396.260071,351.354401 
	C395.510834,357.701874 396.038300,364.200012 396.038300,371.380920 
	C359.897369,392.255371 322.968414,413.584991 286.856934,434.442413 
	C279.556061,430.286255 272.701294,426.384064 265.193512,422.110107 
	C265.193512,390.479980 265.193512,357.557373 265.193512,324.000000 
	C267.146149,324.000000 268.914459,323.999969 270.682739,324.000000 
	C293.830231,324.000092 316.977966,324.056183 340.125000,323.951996 
	C344.633270,323.931702 349.138733,323.288239 354.013672,323.008514 
z"/>
<path fill="#000000" opacity="1.000000" stroke="none" 
	d="
M265.000000,146.944397 
	C265.000000,127.815063 265.000000,109.175926 265.000000,91.940933 
	C272.604614,87.649490 279.344604,83.845970 286.877441,79.595047 
	C322.677551,100.270912 359.626831,121.610458 395.475464,142.314346 
	C395.895782,150.158829 396.399780,157.172134 396.527557,164.192291 
	C396.550079,165.430817 395.293457,167.197601 394.133575,167.876831 
	C377.201447,177.792435 360.144470,187.494980 343.225281,197.432251 
	C340.024994,199.311905 337.970001,198.957260 335.630707,196.180298 
	C327.106842,186.061707 316.165375,180.854782 302.892517,181.070328 
	C299.155121,181.131012 296.243744,180.385605 293.783112,177.359085 
	C286.606354,168.531845 277.666290,162.064072 267.066925,157.827835 
	C266.084229,157.435104 265.264923,155.654907 265.095001,154.419189 
	C264.780121,152.129929 265.001770,149.766891 265.000000,146.944397 
z"/>
<path fill="#000000" opacity="1.000000" stroke="none" 
	d="
M180.237289,183.247711 
	C177.282822,188.171570 174.577454,192.826599 171.692886,197.789978 
	C153.487457,187.288727 135.292267,176.793381 118.026306,166.834045 
	C118.026306,158.652679 118.026306,151.111954 118.026306,142.584427 
	C153.970169,121.832420 190.928131,100.494934 227.134598,79.591316 
	C234.347382,83.690895 241.210419,87.591682 248.818665,91.916023 
	C248.818665,111.120270 248.818665,131.736069 248.818665,152.453873 
	C220.634949,150.783081 197.176315,159.349030 180.237289,183.247711 
z"/>
<path fill="#000000" opacity="1.000000" stroke="none" 
	d="
M394.647614,187.728638 
	C397.882111,185.703674 400.734192,183.749115 403.773743,182.151215 
	C404.574585,181.730240 406.123932,182.114288 407.041107,182.635880 
	C412.264679,185.606491 417.203949,189.168610 422.650085,191.617416 
	C425.364014,192.837738 426.033905,194.036697 426.030975,196.635559 
	C425.985687,236.800858 425.974030,276.966278 426.048370,317.131470 
	C426.054260,320.311676 424.962738,321.171234 421.868958,322.390228 
	C416.023041,324.693665 410.782990,328.534760 404.488800,332.204712 
	C394.429413,326.391968 383.284058,319.951691 371.330414,313.044373 
	C389.545746,297.861053 396.190948,278.510162 390.307922,256.002014 
	C384.462158,233.636444 368.720062,220.897949 345.220093,215.937057 
	C362.287689,206.205414 378.311493,197.068909 394.647614,187.728638 
z"/>
<path fill="#000000" opacity="1.000000" stroke="none" 
	d="
M139.776184,310.276764 
	C140.684998,311.256836 141.345062,311.980652 142.353516,313.086487 
	C136.537140,316.519867 130.982925,319.843201 125.384659,323.090576 
	C119.755394,326.355927 114.082268,329.545654 109.712914,332.036285 
	C103.278976,328.574371 97.887100,325.162964 92.080322,322.750153 
	C88.869194,321.415894 87.904419,320.017334 87.925301,316.680237 
	C88.068108,293.849121 88.000046,271.016663 88.000015,248.184662 
	C87.999992,231.352310 88.083252,214.519196 87.930740,197.688217 
	C87.899796,194.273636 88.797806,192.607239 92.186043,191.170959 
	C97.224716,189.035034 101.731674,185.668900 106.568611,183.015335 
	C107.727318,182.379669 109.680977,181.817291 110.617416,182.355331 
	C129.622147,193.274429 148.531845,204.358887 168.472916,216.001297 
	C166.318481,216.468826 165.056778,216.699341 163.817734,217.017944 
	C141.715668,222.701126 125.205261,239.159225 122.208893,262.384918 
	C119.833931,280.793854 124.919395,297.356384 139.776184,310.276764 
z"/>
<path fill="#000000" opacity="1.000000" stroke="none" 
	d="
M374.992554,272.473663 
	C371.496552,267.954315 368.292877,262.748718 364.450439,258.067444 
	C357.863037,250.041916 348.517242,247.753479 338.718933,247.051407 
	C332.910767,246.635239 330.047028,244.245529 330.051483,238.159225 
	C330.063477,221.755280 312.844574,208.992630 298.010559,212.892960 
	C291.907532,214.497635 288.927216,212.961380 285.335419,207.783295 
	C274.577667,192.274445 259.753754,184.488480 240.854675,183.942917 
	C224.018997,183.456909 209.807571,189.175888 198.319992,201.291214 
	C191.284393,208.711273 186.551224,217.556122 184.336548,227.927307 
	C184.453659,204.788544 193.773376,186.311386 214.731949,175.263504 
	C229.305832,167.581161 244.793762,167.158783 260.194763,173.643951 
	C270.781799,178.102036 279.363281,184.894913 285.455475,194.802567 
	C288.167297,199.212753 292.843933,200.035782 297.333771,198.741699 
	C311.671753,194.609116 329.042236,207.128784 329.027893,223.686920 
	C329.023346,228.932114 332.811890,233.111145 337.861725,232.933868 
	C358.306854,232.216156 376.760681,251.010468 374.992554,272.473663 
z"/>
<path fill="#000000" opacity="1.000000" stroke="none" 
	d="
M427.806519,338.687256 
	C442.743530,335.477997 455.321075,344.274231 455.997589,357.934357 
	C456.491150,367.900635 450.337708,376.700745 440.588470,379.971191 
	C431.440918,383.039734 421.788269,379.425476 416.038239,371.213989 
	C407.091309,358.437164 415.857300,341.113129 427.806519,338.687256 
z"/>
<path fill="#000000" opacity="1.000000" stroke="none" 
	d="
M74.373917,338.038391 
	C91.228012,335.858856 99.555077,344.774353 101.902618,358.421204 
	C103.502022,367.719055 92.462402,380.271301 82.474251,380.995117 
	C65.872437,382.198181 53.852917,367.267639 59.292896,351.674622 
	C61.670101,344.860657 67.225250,340.610840 74.373917,338.038391 
z"/>
<path fill="#000000" opacity="1.000000" stroke="none" 
	d="
M92.666458,137.176392 
	C95.633606,141.809845 99.555252,145.877502 100.786728,150.640686 
	C104.115288,163.515137 94.525658,173.909210 84.557098,175.961334 
	C72.804512,178.380753 64.668732,172.197495 60.069920,164.146561 
	C56.085686,157.171555 57.578129,145.951202 64.103096,139.605927 
	C70.294968,133.584564 80.931641,129.189987 92.666458,137.176392 
z"/>
<path fill="#000000" opacity="1.000000" stroke="none" 
	d="
M435.668518,176.678864 
	C428.024292,175.619934 421.018036,174.295120 416.459045,167.189514 
	C411.178253,158.958954 410.832581,150.964020 416.111023,142.936218 
	C420.932587,135.603271 427.976440,131.817734 436.798431,133.107635 
	C445.762329,134.418289 451.851013,139.630890 455.031555,148.352188 
	C458.703003,158.419373 452.106201,174.681580 435.668518,176.678864 
z"/>
<path fill="#000000" opacity="1.000000" stroke="none" 
	d="
M246.505096,480.790100 
	C235.285080,474.075165 232.568542,460.629425 237.698441,451.634216 
	C242.988510,442.358185 252.577850,438.180542 261.240906,440.297699 
	C271.960388,442.917419 278.331512,449.686859 278.782990,460.548462 
	C279.404968,475.510895 265.488281,488.525635 246.505096,480.790100 
z"/>
<path fill="#000000" opacity="1.000000" stroke="none" 
	d="
M276.784393,43.493267 
	C281.926331,55.233730 276.651184,64.480865 270.467804,69.162186 
	C260.046112,77.052269 250.597046,74.978554 241.702133,68.075218 
	C236.049271,63.688046 233.680237,52.601768 236.267563,45.400448 
	C239.368469,36.769653 247.036804,31.287224 255.435013,30.938341 
	C265.227173,30.531553 272.223206,34.438770 276.784393,43.493267 
z"/>
<path fill="#000000" opacity="1.000000" stroke="none" 
	d="
M183.741791,228.082031 
	C183.718033,232.350876 184.082474,236.998947 182.719849,241.068756 
	C181.901855,243.511948 178.453934,246.640930 176.075668,246.739044 
	C161.562332,247.337677 150.748260,253.859604 142.891663,265.708344 
	C141.490829,267.820953 140.754700,270.374359 139.361755,272.824280 
	C137.136795,252.757996 151.804260,236.853836 169.129608,233.431122 
	C171.052139,233.051315 173.070679,233.182999 175.035675,232.987122 
	C178.517593,232.640030 181.927979,232.110474 183.741791,228.082031 
z"/>
</svg>